<svg id="Layer_1" data-name="Layer 1" xmlns="http://www.w3.org/2000/svg" width="256" height="256" viewBox="0 0 256 256"><title>comment</title><path d="M207,50c-21.2-17-50-26.7-79.1-26.7S70.2,32.8,48.7,50.1,14,92.7,14,119.1a84.6,84.6,0,0,0,18.1,52.2L11.6,236.6l71.2-30.7a182.3,182.3,0,0,0,43.9,5.6c32,0,61.4-9.7,82.7-27.2s32.5-40.4,32.5-65.2C241.9,92.6,229.5,68.1,207,50ZM126.7,193c-17.4,0-31.4-3-43.9-6.2l-1.5-.4-40,17.3,11.4-36.5-1.6-1.9c-9.7-11.6-18.6-25.2-18.6-46.2,0-42.6,42.8-77.3,95.4-77.3s95.5,34.7,95.5,77.3S181.8,193,126.7,193Z" fill-rule="evenodd"/><circle cx="173.4" cy="119" r="18.3"/><path d="M127.9,137.4A18.4,18.4,0,1,1,146.3,119,18.4,18.4,0,0,1,127.9,137.4Z" fill-rule="evenodd"/><path d="M82.4,137.4A18.4,18.4,0,1,1,100.7,119,18.4,18.4,0,0,1,82.4,137.4Z" fill-rule="evenodd"/></svg>