<svg xmlns="http://www.w3.org/2000/svg" width="256" height="256" viewBox="0 0 256 256"><path fill="#fff" d="M236.8 64.9a13.3 13.3 0 0 0-13.3 13.2 14 14 0 0 0 6.4 11.5l-8.4 26.4c-1.5-.5-3.1-.7-4.3-1l-5.4-20.4a13.3 13.3 0 0 0-6.4-24.9 13.3 13.3 0 0 0 0 26.5h.3l5.1 19.1c-8.4 2-15.3 9.9-21.6 17s-14.1 15.8-22.5 17.1c-2-22.9-9.6-41-22.9-54-21.4-20.9-49.1-20.6-50.1-20.6a60.2 60.2 0 0 0-60.1 60.1 43 43 0 0 0 12.5 30.3C25.2 171.3 12 178.4 6.6 186a3 3 0 0 0-.2 3.4 3.1 3.1 0 0 0 2.8 1.7h213.3a3.3 3.3 0 0 0 3.1-2.8 3.3 3.3 0 0 0-2.3-3.5c-5.4-1.6-13.8-5.4-15.6-8.9a2.7 2.7 0 0 1 0-1.8c.8-1.8 3.9-5.6 7.2-9.4 8.6-10.2 20.3-24.5 18.8-35.7a14.4 14.4 0 0 0-6.6-10.2h-.3l8.9-27.5h1.1a13.2 13.2 0 0 0 0-26.4zm-38.5 18a7.1 7.1 0 0 1 7.1-7.1 7 7 0 0 1 7.2 7.1 6.9 6.9 0 0 1-7.2 6.9 7 7 0 0 1-7.1-6.9zM93.4 81.4c2.3 0 27 .5 45.6 18.8 13.7 13.5 20.9 33.4 21.6 58.9h-48.8a43.8 43.8 0 0 0 7.3-24 26 26 0 0 0-51.9 0 3.1 3.1 0 0 0 3.1 3.1 3.2 3.2 0 0 0 3-3.1 19.6 19.6 0 1 1 39.2 0 36.7 36.7 0 1 1-73.3 0 54.3 54.3 0 0 1 54.2-53.7zM227.6 130c1.3 8.7-9.9 21.9-17.3 30.8-3.8 4.6-6.9 8.2-7.9 10.7a7.9 7.9 0 0 0 0 7.2c1 2.3 3.3 4.5 5.8 6.3H16.8c6.9-5.1 18.8-10.2 34.9-14.5a42.4 42.4 0 0 0 54.7-5.1h57.3a3 3 0 0 0 3-3c0-2.1 0-4.4-.2-6.4 10.9-1.5 19.3-10.9 27-19.3 11.2-12.8 18.6-19.9 30-12.3a7 7 0 0 1 4.1 5.6zm9.2-44.8a7.1 7.1 0 0 1-7.2-7.1 7.2 7.2 0 0 1 14.3 0 7.1 7.1 0 0 1-7.1 7.1z"/></svg>